<svg version="1.1" xmlns="http://www.w3.org/2000/svg" viewBox="0 0 924.8258172280229 446.56319334266504" width="924.8258172280229" height="446.56319334266504" class="excalidraw-svg">
  <!-- svg-source:excalidraw -->
  
  <defs>
    <style class="style-fonts">
      @font-face {
        font-family: "Virgil";
        src: url("https://excalidraw.com/Virgil.woff2");
      }
      @font-face {
        font-family: "Cascadia";
        src: url("https://excalidraw.com/Cascadia.woff2");
      }
      @font-face {
        font-family: "Assistant";
        src: url("https://excalidraw.com/Assistant-Regular.woff2");
      }
    </style>
    
  </defs>
  <rect x="0" y="0" width="924.8258172280229" height="446.56319334266504" fill="#ffffff"></rect><g stroke-linecap="round" transform="translate(115.81312488501419 47.31505307241329) rotate(0 112.1005859375 69.01304626464844)"><path d="M32 0 C89.05 0.02, 147.38 -2.89, 192.2 0 M32 0 C89.21 1.21, 145.04 1.14, 192.2 0 M192.2 0 C214.31 1.22, 224.31 12.3, 224.2 32 M192.2 0 C211.91 1.7, 222.37 12.52, 224.2 32 M224.2 32 C222.93 46.47, 225.31 63.06, 224.2 106.03 M224.2 32 C224.29 57.01, 224.05 84.17, 224.2 106.03 M224.2 106.03 C224.09 125.82, 212.08 138.51, 192.2 138.03 M224.2 106.03 C226.36 129.11, 212.14 138.48, 192.2 138.03 M192.2 138.03 C142.27 137.45, 88.44 139.32, 32 138.03 M192.2 138.03 C149.81 139.92, 109.32 139.73, 32 138.03 M32 138.03 C12.15 139.69, 0.91 127.17, 0 106.03 M32 138.03 C12.51 136.91, 1.21 127.68, 0 106.03 M0 106.03 C1.34 83.35, 2.16 58.33, 0 32 M0 106.03 C0.12 77.61, -1.05 47.88, 0 32 M0 32 C-0.54 10.99, 12.62 -0.56, 32 0 M0 32 C-2.29 12.46, 10.15 2.17, 32 0" stroke="#1e1e1e" stroke-width="2" fill="none"></path></g><g transform="translate(160.6724998850142 104.82809933706173) rotate(0 67.2412109375 11.5)"><text x="67.2412109375" y="18.400390625" font-family="Helvetica, Segoe UI Emoji" font-size="20px" fill="#1e1e1e" text-anchor="middle" style="white-space: pre;" direction="ltr" dominant-baseline="alphabetic">Scroll-progress</text></g><g stroke-linecap="round" transform="translate(577.7087910252537 42.15815405390629) rotate(0 112.1005859375 69.01304626464844)"><path d="M32 0 C91.78 1.41, 150.2 1.79, 192.2 0 M32 0 C80.15 1.69, 126.15 1.76, 192.2 0 M192.2 0 C213.15 -0.04, 223.57 10.12, 224.2 32 M192.2 0 C212.87 -1.61, 224.91 9.87, 224.2 32 M224.2 32 C225.3 54.4, 222.14 76.49, 224.2 106.03 M224.2 32 C225.6 61.33, 224.5 91.01, 224.2 106.03 M224.2 106.03 C222.61 127.88, 214.93 139.8, 192.2 138.03 M224.2 106.03 C222.57 127.85, 215.15 136.32, 192.2 138.03 M192.2 138.03 C150.48 136.58, 109.76 138.18, 32 138.03 M192.2 138.03 C138.48 139.26, 84.95 138.44, 32 138.03 M32 138.03 C9.5 137.37, -0.23 129.11, 0 106.03 M32 138.03 C8.97 139.4, -1.19 127.28, 0 106.03 M0 106.03 C0.08 80.64, -2.25 57.29, 0 32 M0 106.03 C-0.03 79.37, -0.79 52.9, 0 32 M0 32 C1.38 12.05, 11.41 -0.19, 32 0 M0 32 C-0.17 8.53, 11.67 -1.14, 32 0" stroke="#1e1e1e" stroke-width="2" fill="none"></path></g><g transform="translate(632.5584004002537 99.67120031855472) rotate(0 57.2509765625 11.5)"><text x="57.2509765625" y="18.400390625" font-family="Helvetica, Segoe UI Emoji" font-size="20px" fill="#1e1e1e" text-anchor="middle" style="white-space: pre;" direction="ltr" dominant-baseline="alphabetic">local-storage</text></g><g stroke-linecap="round" transform="translate(10 15.912299177625954) rotate(0 180.38330078125 210.32544708251953)"><path d="M32 0 C114.23 0.36, 198.21 0.15, 328.77 0 M328.77 0 C349.16 -0.84, 360.08 12.43, 360.77 32 M360.77 32 C358.75 134.38, 360.01 235.97, 360.77 388.65 M360.77 388.65 C359.12 408.38, 349.02 422.3, 328.77 420.65 M328.77 420.65 C265.92 419.7, 204.63 418.91, 32 420.65 M32 420.65 C11.84 421.02, -1.86 411.49, 0 388.65 M0 388.65 C2.47 251.72, 3.52 112.46, 0 32 M0 32 C0.67 11.77, 10.15 -1.41, 32 0" stroke="#1e1e1e" stroke-width="2.5" fill="none" stroke-dasharray="8 10"></path></g><g stroke-linecap="round" transform="translate(539.4533807045854 10) rotate(0 187.68621826171875 209.59517669677734)"><path d="M32 0 C98.78 -2.12, 166.49 -1.2, 343.37 0 M343.37 0 C363.46 1.22, 377.06 11.03, 375.37 32 M375.37 32 C375.68 139.75, 376.48 246.3, 375.37 387.19 M375.37 387.19 C375.45 409.87, 364.12 417.66, 343.37 419.19 M343.37 419.19 C233.19 418.51, 124.44 419.34, 32 419.19 M32 419.19 C11.42 417.85, 0.22 410.48, 0 387.19 M0 387.19 C-1.44 271.39, -2.9 153.9, 0 32 M0 32 C0.05 8.71, 11.1 -0.19, 32 0" stroke="#1e1e1e" stroke-width="2.5" fill="none" stroke-dasharray="8 10"></path></g><g stroke-linecap="round" transform="translate(25.453664799671287 262.1882153971725) rotate(0 69.60356774261061 59.57059247680942)"><path d="M29.79 0 C59.56 -2.49, 88.21 0.1, 109.42 0 M29.79 0 C47.13 0.88, 64.23 0.87, 109.42 0 M109.42 0 C128.54 0.87, 138.56 10.43, 139.21 29.79 M109.42 0 C129.34 -0.98, 141.45 12.05, 139.21 29.79 M139.21 29.79 C138.17 42.94, 140.76 54.22, 139.21 89.36 M139.21 29.79 C139.65 44.61, 139.96 59.54, 139.21 89.36 M139.21 89.36 C137.78 111.17, 129.6 118.45, 109.42 119.14 M139.21 89.36 C138.63 107.07, 127 120.11, 109.42 119.14 M109.42 119.14 C86.44 120.61, 61.02 118.68, 29.79 119.14 M109.42 119.14 C82.58 118.69, 54.24 118.61, 29.79 119.14 M29.79 119.14 C10.14 117.37, 1.65 110.49, 0 89.36 M29.79 119.14 C11.4 119.01, 0.26 111.45, 0 89.36 M0 89.36 C-1.1 74.63, -0.33 57.67, 0 29.79 M0 89.36 C0.11 66.09, 0.17 40.96, 0 29.79 M0 29.79 C0.76 11.11, 8.34 0.6, 29.79 0 M0 29.79 C-0.46 8.39, 8.2 1.01, 29.79 0" stroke="#1e1e1e" stroke-width="0.5" fill="none"></path></g><g transform="translate(61.09900448834384 309.0858573020089) rotate(0 30.0146484375 11.5)"><text x="0" y="18.400390625" font-family="Helvetica, Segoe UI Emoji" font-size="20px" fill="#1e1e1e" text-anchor="start" style="white-space: pre;" direction="ltr" dominant-baseline="alphabetic">Styling</text></g><g stroke-linecap="round" transform="translate(197.26781922868497 262.81526488725865) rotate(0 69.60356774261061 59.57059247680942)"><path d="M29.79 0 C52.75 -0.09, 73.82 0.22, 109.42 0 M29.79 0 C47.68 -0.19, 65.45 0.61, 109.42 0 M109.42 0 C129.1 -1.43, 137.49 9.12, 139.21 29.79 M109.42 0 C127.82 -1.99, 137.33 11.58, 139.21 29.79 M139.21 29.79 C141.26 47.64, 139.38 70.07, 139.21 89.36 M139.21 29.79 C139.06 52.59, 139.58 75.4, 139.21 89.36 M139.21 89.36 C139.67 107.74, 128.48 117.96, 109.42 119.14 M139.21 89.36 C141.25 109.87, 127.27 120.15, 109.42 119.14 M109.42 119.14 C81.58 118.15, 52.61 117.13, 29.79 119.14 M109.42 119.14 C85.31 118.89, 58.79 120.16, 29.79 119.14 M29.79 119.14 C10.27 120.86, 1.12 109.83, 0 89.36 M29.79 119.14 C11.9 118.33, 1.34 109.42, 0 89.36 M0 89.36 C1.62 68.03, 0.92 45.21, 0 29.79 M0 89.36 C1.03 66.99, -0.21 43.13, 0 29.79 M0 29.79 C0.2 10.15, 8.93 0.26, 29.79 0 M0 29.79 C1.24 8.03, 8.33 0.12, 29.79 0" stroke="#1e1e1e" stroke-width="0.5" fill="none"></path></g><g transform="translate(248.13573516567294 308.88283266978215) rotate(0 20.56640625 11.5)"><text x="0" y="18.400390625" font-family="Helvetica, Segoe UI Emoji" font-size="20px" fill="#1e1e1e" text-anchor="start" style="white-space: pre;" direction="ltr" dominant-baseline="alphabetic">logic</text></g><g stroke-linecap="round" transform="translate(735.347331912063 268.98291621789633) rotate(0 69.60356774261061 59.57059247680943)"><path d="M29.79 0 C51.96 2.27, 69.79 1.7, 109.42 0 M29.79 0 C46.02 -0.78, 64.57 0.27, 109.42 0 M109.42 0 C130.23 -1.64, 140.58 11.78, 139.21 29.79 M109.42 0 C128.09 -0.12, 141.38 11.19, 139.21 29.79 M139.21 29.79 C137.93 43.27, 138.42 58.23, 139.21 89.36 M139.21 29.79 C138.88 48.9, 140.03 67.73, 139.21 89.36 M139.21 89.36 C140.4 108.63, 130.8 117.68, 109.42 119.14 M139.21 89.36 C140.19 109.08, 130.39 117.68, 109.42 119.14 M109.42 119.14 C82.37 119.68, 58.92 119.53, 29.79 119.14 M109.42 119.14 C89.43 119.49, 69.8 118.6, 29.79 119.14 M29.79 119.14 C9.1 118.38, -1.83 108.02, 0 89.36 M29.79 119.14 C10.38 118.36, 1.51 109.95, 0 89.36 M0 89.36 C1.68 65.26, -0.6 44.16, 0 29.79 M0 89.36 C-0.89 71.35, 0.55 53.32, 0 29.79 M0 29.79 C0.32 10.76, 11.64 -1.47, 29.79 0 M0 29.79 C-1.99 9.45, 9.18 -1.95, 29.79 0" stroke="#1e1e1e" stroke-width="0.5" fill="none"></path></g><g transform="translate(786.2152478490511 315.05048400041983) rotate(0 20.56640625 11.5)"><text x="0" y="18.400390625" font-family="Helvetica, Segoe UI Emoji" font-size="20px" fill="#1e1e1e" text-anchor="start" style="white-space: pre;" direction="ltr" dominant-baseline="alphabetic">logic</text></g></svg>